<svg width="500" height="300" viewBox="0 0 500 300" fill="none" xmlns="http://www.w3.org/2000/svg">
<path d="M373.098 30.1406C380.851 31.1029 388.453 32.9521 396.062 34.6875C397.663 35.0486 399.263 35.4094 400.863 35.77C405.578 36.8356 410.29 37.9154 415 39C415.685 39.1574 416.37 39.3148 417.076 39.477C421.22 40.4303 425.361 41.3974 429.5 42.375C430.518 42.6131 431.537 42.8511 432.586 43.0964C433.517 43.3198 434.447 43.5433 435.406 43.7734C436.204 43.9634 437.001 44.1534 437.822 44.3491C441.295 45.387 443.372 46.1139 445.517 49.1411C445.994 50.0253 446.47 50.9094 446.961 51.8203C447.508 52.8191 448.055 53.8179 448.619 54.8469C449.488 56.4696 449.488 56.4696 450.375 58.125C451.622 60.4034 452.87 62.6807 454.121 64.957C454.44 65.5398 454.759 66.1227 455.087 66.7231C458.427 72.817 461.92 78.8192 465.438 84.8125C465.992 85.7582 466.546 86.7039 467.117 87.6782C467.654 88.5952 468.192 89.5122 468.746 90.457C469.271 91.3563 469.795 92.2556 470.335 93.1821C471.525 95.1964 472.738 97.1973 473.965 99.189C474.928 100.772 474.928 100.772 475.91 102.387C476.501 103.342 477.091 104.296 477.699 105.28C479.08 108.168 479.377 109.846 479 113C477.485 115.183 476.518 115.864 473.949 116.539C467.939 116.767 467.939 116.767 465.078 114.43C463.591 112.68 462.252 110.924 461 109C460.484 109.516 459.969 110.031 459.438 110.562C457 112 457 112 453.5 112C449.343 110.812 448.209 109.654 446 106C445.25 103.688 445.25 103.688 445 102C444.34 102.66 443.68 103.32 443 104C439.944 104.56 437.058 104.539 434 104C431.044 101.34 429.584 98.9405 429 95C428.34 95.33 427.68 95.66 427 96C422.876 96.3891 420.661 96.3936 417.062 94.25C415 92 415 92 415 88C410.039 91.6887 406.422 95.9996 402.574 100.82C399.225 105.001 395.693 109.026 392.162 113.052C389.131 116.547 386.486 120.097 384 124C386.842 123.656 387.837 123.186 389.754 120.996C390.351 120.152 390.948 119.307 391.562 118.438C397.134 111.179 404.045 105.396 413 103C418.326 102.357 422.675 102.372 427.562 104.688C431.131 108.073 431.818 110.427 432.375 115.25C431.896 120.04 431.065 124.177 428 128C425.727 128.8 423.839 128.875 421.434 128.914C415.547 129.122 409.282 131.579 404.625 135.18C396.384 144.411 393.89 159.274 391 171C405.388 166.442 419.422 161.62 433 155C433.995 154.521 433.995 154.521 435.01 154.032C448.548 147.437 459.621 138.954 470 128C471.33 126.663 472.662 125.329 474 124C474.278 130.872 473.431 136.601 471.5 143.188C471.233 144.104 470.966 145.021 470.691 145.966C461.922 174.52 438.166 194.063 412.695 207.621C401.715 213.285 390.246 217.71 378.562 221.688C377.802 221.949 377.042 222.21 376.259 222.479C360.269 227.737 343.782 231.039 327.188 233.688C325.783 233.913 325.783 233.913 324.351 234.142C307.579 236.802 290.996 238.671 274 239C272.578 239.028 272.578 239.028 271.126 239.056C241.598 239.59 212.373 239.163 183 236C181.991 235.894 180.982 235.787 179.942 235.678C176.715 235.337 173.488 234.991 170.262 234.634C153.554 232.821 136.785 232.859 120 233C120.517 234.025 121.034 235.05 121.566 236.105C122.232 237.466 122.898 238.826 123.562 240.188C123.905 240.861 124.247 241.535 124.6 242.229C126.083 245.299 127.011 247.389 126.949 250.84C125.78 253.501 124.858 254.149 122.25 255.375C121.575 255.713 120.899 256.05 120.203 256.398C117.353 257.177 115.801 256.935 113 256C111.514 253.867 111.514 253.867 110.324 251.09C109.672 249.606 109.672 249.606 109.006 248.092C108.571 247.051 108.136 246.01 107.688 244.938C107.233 243.893 106.779 242.848 106.311 241.771C105.19 239.188 104.087 236.598 103 234C70.4452 234.614 42.1558 252.348 20 275C20.5496 270.422 22.5131 267.092 25 263.312C25.4023 262.696 25.8045 262.08 26.219 261.444C29.9833 255.806 34.272 250.857 39 246C39.7464 245.192 40.4927 244.384 41.2617 243.551C52.4071 231.816 65.7782 223.495 80 216C81.0312 215.45 82.0625 214.899 83.125 214.332C89.5464 211 89.5464 211 93 211C92.5595 210.024 92.1189 209.048 91.665 208.042C86.5537 196.714 81.4556 185.38 76.3658 174.042C75.4464 171.994 74.5268 169.947 73.6069 167.899C70.8239 161.705 68.0466 155.508 65.277 149.308C64.3856 147.315 63.4925 145.322 62.5975 143.33C61.3401 140.531 60.0892 137.729 58.8398 134.926C58.4646 134.094 58.0894 133.262 57.7028 132.406C56.3006 129.245 55.0837 126.43 54.4202 123.024C54.2815 122.356 54.1429 121.688 54 121C51.5236 119.625 51.5236 119.625 49 119C49.33 117.35 49.66 115.7 50 114C49.34 114 48.68 114 48 114C47.7229 113.29 47.4457 112.579 47.1602 111.848C46.7979 110.929 46.4357 110.009 46.0625 109.062C45.7029 108.146 45.3432 107.229 44.9727 106.285C44.2004 104.076 44.2004 104.076 43 103C41.6101 98.1809 40.2243 92.9865 41 88C44.7304 82.5205 48.4773 80.4212 54.5547 78.0195C55.3745 77.68 56.1942 77.3405 57.0388 76.9906C59.6447 75.9154 62.2593 74.8636 64.875 73.8125C66.6243 73.096 68.373 72.3779 70.1211 71.6582C74.0576 70.0399 78.0007 68.4384 81.9479 66.8463C83.922 66.0322 85.8704 65.1724 87.8208 64.3035C91.5355 62.7805 94.023 62.4747 98 63C100.365 64.8671 101.66 66.3206 103 69C103.188 72.5 103.188 72.5 103 76C100.327 78.6728 97.7829 79.2123 94.1875 80.375C93.5168 80.5934 92.8461 80.8118 92.155 81.0369C87.8867 82.4194 83.6024 83.7485 79.3125 85.0625C78.2709 85.3822 77.2294 85.7019 76.1562 86.0312C73.9701 86.7023 71.7825 87.3686 69.5938 88.0312C68.5109 88.3716 67.4281 88.7119 66.3125 89.0625C65.3393 89.3629 64.366 89.6632 63.3633 89.9727C60.6871 90.8822 60.6871 90.8822 59 94C60.32 94.66 61.64 95.32 63 96C62.67 97.65 62.34 99.3 62 101C63.32 101.33 64.64 101.66 66 102C65.505 103.98 65.505 103.98 65 106C65.99 106.33 66.98 106.66 68 107C67.9587 107.784 67.9175 108.567 67.875 109.375C67.7127 112.161 67.7127 112.161 70 114C69.9821 115.054 69.9642 116.108 69.9458 117.194C70.0077 121.537 71.0094 123.992 72.8672 127.898C73.1737 128.555 73.4802 129.211 73.796 129.887C74.4621 131.309 75.134 132.73 75.8112 134.147C77.653 138.004 79.4503 141.883 81.2539 145.758C81.6358 146.575 82.0177 147.393 82.4112 148.235C87.0384 158.169 91.4248 168.208 95.8125 178.25C96.5903 180.027 97.3681 181.803 98.146 183.58C101.12 190.377 104.084 197.177 107 204C112.604 203.198 118.268 202.292 123 199C126.563 193.984 127.048 187.372 127.938 181.438C128.235 179.807 128.539 178.177 128.85 176.549C129.41 173.567 129.931 170.584 130.406 167.588C130.836 164.993 131.356 162.539 132 160C132.417 156.458 132.417 156.458 132 153C130.139 151.018 130.139 151.018 128 150C128.542 146.204 130.201 144.528 133 142C123.123 151.115 114.904 156.564 101.062 156.312C95.5416 155.749 93.0871 153.087 89.3125 149.312C83.0669 141.153 82.8364 130.875 84 121C87.1657 103.584 97.4759 85.915 111.766 75.4688C120.099 69.9907 127.976 67.9386 138 69C143.002 71.4557 146.499 74.997 149 80C149.07 81.5402 149.085 83.0833 149.062 84.625C149.053 85.4423 149.044 86.2595 149.035 87.1016C149.018 88.0413 149.018 88.0413 149 89C149.705 88.679 150.41 88.358 151.137 88.0273C156.622 86.0591 163.013 85.7633 168.453 88.0156C171.699 90.0113 174.357 92.2608 177 95C177.412 94.4805 177.825 93.961 178.25 93.4258C183.065 87.6115 188.314 82.4014 196 81C197.686 80.9095 199.374 80.8699 201.062 80.875C201.92 80.8724 202.777 80.8698 203.66 80.8672C206 81 206 81 209 82C210.756 74.9537 212.317 68.2078 212.496 60.9258C213 59 213 59 214.672 57.7539C219.867 56.0715 226.034 56.0406 231.234 57.7227C235.052 59.7376 237.451 61.9917 239 66C239.402 69.8679 239.24 73.2798 238 77C241.63 76.67 245.26 76.34 249 76C249.651 73.6472 250.296 71.2929 250.938 68.9375C251.12 68.2807 251.302 67.6239 251.49 66.9473C252.657 62.6412 253.453 58.4284 254 54C263.718 53.4739 268.939 53.7178 276.438 60.0625C278.834 64.568 278.315 68.9996 278 74C279.454 73.3813 279.454 73.3813 280.938 72.75C281.9 72.3459 281.9 72.3459 282.883 71.9336C284.314 71.3024 285.726 70.6261 287.117 69.9102C293.375 66.781 299.353 65.548 306.188 67.6836C308.125 68.5 308.125 68.5 311 70C311.014 69.0938 311.028 68.1876 311.043 67.2539C311.348 59.4688 312.033 53.2352 317 47C320.74 45.1301 324.929 45.4438 329 46C331.939 47.3468 334.458 49.0118 337 51C335.787 47.2757 334.491 43.622 333 40C339.696 37.3405 346.126 35.3927 353.203 37.7266C357.48 39.6748 360.779 41.7429 363 46C364.702 54.2197 361.315 62.1281 358.723 69.8076C357.48 73.5756 356.366 77.3804 355.25 81.1875C355.04 81.894 354.829 82.6005 354.613 83.3284C352.2 91.5222 350.519 99.7099 352.875 108.125C355.887 110.782 358.577 110.498 362.492 110.703C367.057 111.243 369.83 113.752 372.875 117C374 119 374 119 374 123C379.332 121.568 381.867 118.148 385.25 114.062C385.82 113.39 386.39 112.717 386.977 112.023C391.037 107.213 395.027 102.344 398.988 97.4531C401.907 93.8935 404.938 90.4365 408 87C407.051 86.4225 406.103 85.845 405.125 85.25C400.992 82.2744 400.992 82.2744 400 79C399.875 76.25 399.875 76.25 400 74C399.113 74.0825 398.226 74.165 397.312 74.25C393.275 73.9453 391.861 72.7796 389 70C387.63 67.2609 387.874 65.0291 388 62C388.33 61.34 388.66 60.68 389 60C387.783 60.1238 386.566 60.2475 385.312 60.375C381.523 60.3683 381.072 60.06 377.938 57.4375C375.625 53.3338 375.835 51.479 377 47C375.948 47.1238 374.896 47.2475 373.812 47.375C370 47 370 47 367.062 44.375C364.814 40.6958 364.195 39.2028 365 35C366.984 30.7609 368.585 29.6342 373.098 30.1406Z" fill="#FBD6A8"/>
<path d="M98 63C100.365 64.8671 101.66 66.3206 103 69C103.188 72.5 103.188 72.5 103 76C100.327 78.6728 97.7829 79.2123 94.1875 80.375C93.5168 80.5934 92.8461 80.8118 92.155 81.0369C87.8867 82.4194 83.6024 83.7485 79.3125 85.0625C78.2709 85.3822 77.2294 85.7019 76.1562 86.0312C73.9701 86.7023 71.7825 87.3686 69.5938 88.0312C68.5109 88.3716 67.4281 88.7119 66.3125 89.0625C65.3393 89.3629 64.366 89.6632 63.3633 89.9727C60.6871 90.8822 60.6871 90.8822 59 94C60.32 94.66 61.64 95.32 63 96C62.67 97.65 62.34 99.3 62 101C63.32 101.33 64.64 101.66 66 102C65.67 103.32 65.34 104.64 65 106C65.99 106.33 66.98 106.66 68 107C67.9587 107.784 67.9175 108.567 67.875 109.375C67.7127 112.161 67.7127 112.161 70 114C69.9821 115.054 69.9642 116.108 69.9458 117.194C70.0077 121.537 71.0094 123.992 72.8672 127.898C73.1737 128.555 73.4802 129.211 73.796 129.887C74.4621 131.309 75.134 132.73 75.8112 134.147C77.653 138.004 79.4503 141.883 81.2539 145.758C81.6358 146.575 82.0177 147.393 82.4112 148.235C87.0384 158.169 91.4248 168.208 95.8125 178.25C96.5903 180.027 97.3681 181.803 98.146 183.58C101.12 190.377 104.084 197.177 107 204C108.338 203.567 108.338 203.567 109.703 203.125C110.874 202.754 112.044 202.382 113.25 202C114.41 201.629 115.57 201.257 116.766 200.875C120 200 120 200 124 200C124.026 200.724 124.052 201.449 124.078 202.195C124.528 209.864 125.783 214.089 131.625 219.375C137.789 222.343 143.539 221.569 149.938 219.562C157.837 217.33 165.902 216.905 174.057 216.271C184.017 215.363 188.096 213.31 195 206C203.288 212.446 203.288 212.446 205.375 217C207.43 220.794 209.146 222.073 213 224C218.58 225.23 224.315 225.103 230 225C229.67 224.01 229.34 223.02 229 222C228.905 219.814 228.87 217.625 228.875 215.437C228.872 214.281 228.87 213.125 228.867 211.934C229 209 229 209 230 207C232.223 206.762 232.223 206.762 235.062 206.687C243 206.11 247.6 202.608 253 197C255 197 255 197 257.5 199.437C258.325 200.283 259.15 201.129 260 202C263.948 203.974 268.698 203.451 273 203C275.099 202.113 276.945 201.032 278.906 199.879C282.326 198.443 285.674 198.907 289.324 199.043C295.864 198.938 300.779 195.679 306 192C308.062 190.562 308.062 190.562 310 190C310.704 190.48 311.408 190.959 312.133 191.453C315.749 193.404 318.821 193.336 322.812 193.187C323.505 193.174 324.198 193.16 324.912 193.146C326.608 193.111 328.304 193.058 330 193C330.66 190.03 331.32 187.06 332 184C332.66 184.33 333.32 184.66 334 185C334 185.66 334 186.32 334 187C335.176 187.464 335.176 187.464 336.375 187.937C339 189 339 189 341 190C349.802 190.85 357.977 189.913 365.121 184.348C367 183 367 183 369.562 183.25C371.382 183.81 373.194 184.398 375 185C377.228 185.069 379.458 185.085 381.688 185.062C382.867 185.053 384.046 185.044 385.262 185.035C386.165 185.024 387.069 185.012 388 185C388.164 183.627 388.164 183.627 388.332 182.227C388.57 180.444 388.57 180.444 388.812 178.625C388.963 177.442 389.114 176.258 389.27 175.039C390 172 390 172 393 170C394.778 169.415 396.573 168.881 398.375 168.375C425.486 160.17 450.304 148.788 470 128C471.33 126.663 472.662 125.329 474 124C474.278 130.872 473.431 136.601 471.5 143.187C471.233 144.104 470.966 145.021 470.691 145.966C461.922 174.52 438.166 194.063 412.695 207.621C401.715 213.285 390.246 217.71 378.562 221.687C377.802 221.949 377.042 222.21 376.259 222.479C360.269 227.737 343.782 231.039 327.188 233.687C325.783 233.913 325.783 233.913 324.351 234.142C307.579 236.802 290.996 238.671 274 239C272.578 239.028 272.578 239.028 271.126 239.056C241.598 239.59 212.373 239.163 183 236C181.991 235.894 180.982 235.787 179.942 235.678C176.715 235.337 173.488 234.991 170.262 234.634C153.554 232.821 136.785 232.859 120 233C120.517 234.025 121.034 235.05 121.566 236.105C122.232 237.466 122.898 238.826 123.562 240.187C123.905 240.861 124.247 241.535 124.6 242.229C126.083 245.299 127.011 247.389 126.949 250.84C125.78 253.501 124.858 254.149 122.25 255.375C121.575 255.713 120.899 256.05 120.203 256.398C117.353 257.177 115.801 256.935 113 256C111.514 253.867 111.514 253.867 110.324 251.09C109.672 249.606 109.672 249.606 109.006 248.092C108.571 247.051 108.136 246.01 107.688 244.937C107.233 243.893 106.779 242.848 106.311 241.771C105.19 239.188 104.087 236.598 103 234C70.4452 234.614 42.1558 252.348 20 275C20.5496 270.422 22.5131 267.092 25 263.312C25.4023 262.696 25.8045 262.08 26.219 261.444C29.9833 255.806 34.272 250.857 39 246C39.7464 245.192 40.4927 244.384 41.2617 243.551C52.4071 231.816 65.7782 223.495 80 216C81.0312 215.45 82.0625 214.899 83.125 214.332C89.5464 211 89.5464 211 93 211C92.5595 210.024 92.1189 209.048 91.665 208.042C86.5537 196.714 81.4556 185.38 76.3658 174.042C75.4464 171.994 74.5268 169.947 73.6069 167.899C70.8239 161.705 68.0466 155.508 65.277 149.308C64.3856 147.315 63.4925 145.322 62.5975 143.33C61.3401 140.531 60.0892 137.729 58.8398 134.926C58.4646 134.094 58.0894 133.262 57.7028 132.406C56.3005 129.245 55.0837 126.43 54.4202 123.024C54.2122 122.022 54.2122 122.022 54 121C51.5236 119.625 51.5236 119.625 49 119C49.33 117.35 49.66 115.7 50 114C49.34 114 48.68 114 48 114C47.7229 113.29 47.4457 112.579 47.1602 111.848C46.7979 110.929 46.4357 110.009 46.0625 109.062C45.523 107.688 45.523 107.688 44.9727 106.285C44.2004 104.076 44.2004 104.076 43 103C41.6101 98.1809 40.2243 92.9865 41 88C44.7304 82.5205 48.4773 80.4212 54.5547 78.0195C55.3745 77.68 56.1942 77.3405 57.0388 76.9906C59.6447 75.9154 62.2593 74.8636 64.875 73.8125C66.6243 73.096 68.373 72.3779 70.1211 71.6582C74.0576 70.0399 78.0007 68.4384 81.9479 66.8463C83.922 66.0322 85.8704 65.1724 87.8208 64.3035C91.5355 62.7805 94.023 62.4747 98 63Z" fill="#EA590D"/>
<path d="M162.199 142.844C170.049 142.629 175.468 142.74 181.437 148.25C183.393 151.691 183.306 154.104 183 158C182.01 158.33 181.02 158.66 180 159C179.42 158.697 178.84 158.394 178.242 158.082C175.146 156.588 172.548 156.699 169.125 156.688C167.334 156.662 167.334 156.662 165.508 156.637C161.548 157.047 159.262 157.709 156 160C154.425 163.132 154.425 163.132 153.625 166.688C153.308 167.867 152.991 169.046 152.664 170.262C152.445 171.165 152.226 172.069 152 173C152.691 172.843 153.382 172.685 154.094 172.523C160.599 171.352 167.483 170.528 173.312 173.938C175.059 177.107 175.191 178.211 175.105 181.691C175.09 182.499 175.075 183.307 175.059 184.139C175.03 185.06 175.03 185.06 175 186C173.064 185.948 173.064 185.948 171.09 185.895C169.372 185.866 167.655 185.839 165.937 185.813C165.09 185.787 164.242 185.762 163.369 185.736C157.788 185.672 153.906 186.263 149 189C146.875 192.188 146.498 194.265 146 198C147.251 197.515 147.251 197.515 148.527 197.02C152.355 195.896 155.579 195.7 159.562 195.688C160.843 195.671 162.123 195.654 163.441 195.637C167.203 196.021 168.887 196.983 172 199C176.15 199.47 176.15 199.47 178.648 196.367C179.571 195.214 180.479 194.049 181.375 192.875C181.851 192.305 182.326 191.735 182.816 191.148C184.374 189.235 184.374 189.235 186 186C185.261 181.43 182.861 177.759 180.5 173.813C179.587 172.275 179.587 172.275 178.656 170.707C177.477 168.78 176.253 166.88 175 165C178.995 162.337 182.302 162.164 187 163C189.375 165.188 189.375 165.188 191 168C191.577 168.887 192.155 169.774 192.75 170.688C194 173 194 173 194 175C198.851 170.59 202.348 165.42 206 160C212.149 162.298 212.149 162.298 214 166C214.207 170.559 212.493 172.876 209.625 176.188C207.89 178.059 206.147 179.865 204.27 181.594C202.733 182.971 202.733 182.971 203.062 185.313C205.053 191.02 207.803 194.092 213 197C213.238 195.689 213.238 195.689 213.48 194.352C215.021 186.232 216.947 178.329 219.222 170.384C220.766 164.959 222.014 159.557 223 154C226.712 153.655 228.573 153.744 231.812 155.688C234.253 158.267 234.474 159.587 235 163C235.554 162.506 236.109 162.013 236.68 161.504C237.404 160.863 238.129 160.223 238.875 159.563C239.594 158.924 240.314 158.286 241.055 157.629C243.698 155.416 244.809 155.022 248.312 154.625C252 155 252 155 254.937 156.625C258.336 162.186 257.824 167.668 257 174C254.088 184.548 249.49 193.295 240.5 199.813C237.518 201.229 236.248 201.696 233 201C230.481 199.186 228.228 197.157 226 195C224.278 202.949 223.091 210.942 222 219C217.359 219.201 214.722 218.952 211.125 215.711C208.975 212.441 209.559 208.746 210 205C209.113 205.268 208.226 205.536 207.312 205.813C204 206 204 206 201.375 203.875C199.827 202.001 198.305 200.106 196.812 198.188C196.214 197.466 195.616 196.744 195 196C194.34 196 193.68 196 193 196C191.602 197.742 190.28 199.545 189 201.375C185.157 206.843 185.157 206.843 183 209C177.667 209.333 177.667 209.333 175 208C175 208.66 175 209.32 175 210C174.175 210.026 173.35 210.052 172.5 210.078C165.584 210.418 159.351 211.253 152.687 213.062C146.939 214.592 141.951 215.878 136 215C132.718 212.47 131.308 210.923 130 207C129.375 198.507 131.425 190.638 133.375 182.438C133.696 181.053 134.016 179.668 134.336 178.283C135.573 172.942 136.83 167.609 138.215 162.305C139.396 157.333 139.639 152.918 138 148C146.259 144.995 153.471 143.27 162.199 142.844Z" fill="#11A84B"/>
<path d="M98 63C100.365 64.8671 101.66 66.3206 103 69C103.188 72.5 103.188 72.5 103 76C100.327 78.6728 97.7829 79.2123 94.1875 80.375C93.5168 80.5934 92.8461 80.8118 92.155 81.0369C87.8867 82.4194 83.6024 83.7485 79.3125 85.0625C78.2709 85.3822 77.2294 85.7019 76.1562 86.0312C73.9701 86.7023 71.7825 87.3686 69.5938 88.0312C68.5109 88.3716 67.4281 88.7119 66.3125 89.0625C65.3393 89.3629 64.366 89.6632 63.3633 89.9727C60.6871 90.8822 60.6871 90.8822 59 94C60.32 94.66 61.64 95.32 63 96C62.67 97.65 62.34 99.3 62 101C63.32 101.33 64.64 101.66 66 102C65.67 103.32 65.34 104.64 65 106C65.99 106.33 66.98 106.66 68 107C67.9587 107.784 67.9175 108.567 67.875 109.375C67.7127 112.161 67.7127 112.161 70 114C69.9821 115.054 69.9642 116.108 69.9458 117.194C70.0077 121.537 71.0094 123.992 72.8672 127.898C73.1738 128.555 73.4804 129.211 73.7963 129.887C74.4624 131.31 75.1345 132.73 75.8117 134.148C77.6512 138.001 79.4451 141.875 81.2461 145.746C81.6276 146.563 82.0091 147.38 82.4022 148.222C86.6408 157.321 90.6992 166.498 94.7318 175.69C95.9251 178.409 97.1234 181.126 98.3218 183.843C99.0574 185.519 99.7926 187.195 100.527 188.871C100.865 189.636 101.203 190.401 101.551 191.19C102.966 194.434 104.21 197.551 105 201C104.34 201 103.68 201 103 201C103.454 202.019 103.909 203.039 104.377 204.089C106.058 207.863 107.734 211.64 109.409 215.417C110.135 217.053 110.862 218.688 111.591 220.323C112.637 222.669 113.678 225.018 114.719 227.367C115.211 228.467 115.211 228.467 115.713 229.59C118 234.772 118 234.772 118 237C118.66 237 119.32 237 120 237C120.33 236.34 120.66 235.68 121 235C122.038 237.054 123.055 239.119 124.062 241.187C124.631 242.336 125.199 243.485 125.785 244.668C127.053 248.145 127.402 249.605 126 253C124.328 254.398 124.328 254.398 122.25 255.375C121.575 255.713 120.899 256.05 120.203 256.398C117.353 257.177 115.801 256.935 113 256C111.514 253.867 111.514 253.867 110.324 251.09C109.672 249.606 109.672 249.606 109.006 248.092C108.571 247.051 108.136 246.01 107.688 244.937C107.233 243.893 106.779 242.848 106.311 241.771C105.19 239.188 104.087 236.598 103 234C70.4452 234.614 42.1558 252.348 20 275C20.5496 270.422 22.5131 267.092 25 263.312C25.4023 262.696 25.8045 262.08 26.219 261.444C29.9833 255.806 34.272 250.857 39 246C39.7464 245.192 40.4927 244.384 41.2617 243.551C52.4071 231.816 65.7782 223.495 80 216C81.0312 215.45 82.0625 214.899 83.125 214.332C89.5464 211 89.5464 211 93 211C92.5595 210.024 92.1189 209.048 91.665 208.042C86.5537 196.714 81.4556 185.38 76.3658 174.042C75.4464 171.994 74.5268 169.947 73.6069 167.899C70.8239 161.705 68.0466 155.508 65.277 149.308C64.3856 147.315 63.4925 145.322 62.5975 143.33C61.3401 140.531 60.0892 137.729 58.8398 134.926C58.4646 134.094 58.0894 133.262 57.7028 132.406C56.3005 129.245 55.0837 126.43 54.4202 123.024C54.2122 122.022 54.2122 122.022 54 121C51.5236 119.625 51.5236 119.625 49 119C49.33 117.35 49.66 115.7 50 114C49.34 114 48.68 114 48 114C47.7229 113.29 47.4457 112.579 47.1602 111.848C46.7979 110.929 46.4357 110.009 46.0625 109.062C45.523 107.688 45.523 107.688 44.9727 106.285C44.2004 104.076 44.2004 104.076 43 103C41.6101 98.1809 40.2243 92.9865 41 88C44.7304 82.5205 48.4773 80.4212 54.5547 78.0195C55.3745 77.68 56.1942 77.3405 57.0388 76.9906C59.6447 75.9154 62.2593 74.8636 64.875 73.8125C66.6243 73.096 68.373 72.3779 70.1211 71.6582C74.0576 70.0399 78.0007 68.4384 81.9479 66.8463C83.922 66.0322 85.8704 65.1724 87.8208 64.3035C91.5355 62.7805 94.023 62.4747 98 63Z" fill="#EA5B10"/>
<path d="M373.098 30.1406C380.851 31.1029 388.453 32.9521 396.062 34.6875C397.663 35.0486 399.263 35.4094 400.863 35.77C405.578 36.8356 410.29 37.9154 415 39C415.685 39.1574 416.37 39.3148 417.076 39.477C421.22 40.4303 425.361 41.3974 429.5 42.375C430.518 42.6131 431.537 42.8511 432.586 43.0964C433.517 43.3198 434.447 43.5433 435.406 43.7734C436.602 44.0584 436.602 44.0584 437.822 44.3491C441.295 45.387 443.372 46.1139 445.517 49.1411C446.232 50.4673 446.232 50.4673 446.961 51.8203C447.508 52.8191 448.055 53.8179 448.619 54.8469C449.198 55.9287 449.778 57.0105 450.375 58.125C451.622 60.4034 452.87 62.6807 454.121 64.957C454.44 65.5398 454.759 66.1227 455.087 66.7231C458.427 72.817 461.92 78.8192 465.437 84.8125C465.992 85.7582 466.546 86.7039 467.117 87.6782C467.654 88.5952 468.192 89.5122 468.746 90.457C469.533 91.806 469.533 91.806 470.335 93.1821C471.525 95.1964 472.738 97.1973 473.965 99.189C474.607 100.244 475.249 101.299 475.91 102.387C476.501 103.342 477.091 104.296 477.699 105.28C479.08 108.168 479.377 109.846 479 113C477.485 115.183 476.518 115.864 473.949 116.539C467.939 116.767 467.939 116.767 465.078 114.43C463.591 112.68 462.252 110.924 461 109C460.484 109.516 459.969 110.031 459.437 110.562C457 112 457 112 453.5 112C449.343 110.812 448.209 109.654 446 106C445.25 103.688 445.25 103.688 445 102C444.34 102.66 443.68 103.32 443 104C439.944 104.56 437.058 104.539 434 104C431.044 101.34 429.584 98.9405 429 95C428.01 95.495 428.01 95.495 427 96C422.876 96.3891 420.661 96.3936 417.062 94.25C415 92 415 92 415 88C410.04 91.688 406.424 95.9993 402.574 100.816C399.21 105.015 395.679 109.07 392.162 113.14C391.679 113.7 391.196 114.259 390.699 114.836C390.237 115.37 389.774 115.903 389.297 116.453C388.093 117.89 386.966 119.39 385.848 120.895C384 123 384 123 380.75 123.312C379.842 123.209 378.935 123.106 378 123C382.798 116.282 388.161 110.132 393.586 103.922C396.865 100.166 400.097 96.3728 403.312 92.5625C403.786 92.0009 404.26 91.4392 404.749 90.8606C405.833 89.5744 406.917 88.2873 408 87C407.038 86.38 406.077 85.7599 405.086 85.1211C401.005 82.316 401.005 82.316 400 79C399.875 76.25 399.875 76.25 400 74C399.113 74.0825 398.226 74.165 397.312 74.25C393.275 73.9453 391.861 72.7796 389 70C387.63 67.2609 387.874 65.0291 388 62C388.33 61.34 388.66 60.68 389 60C387.175 60.1856 387.175 60.1856 385.312 60.375C381.523 60.3683 381.072 60.06 377.937 57.4375C375.625 53.3338 375.835 51.479 377 47C375.948 47.1238 374.896 47.2475 373.812 47.375C370 47 370 47 367.062 44.375C364.814 40.6958 364.195 39.2028 365 35C366.984 30.7609 368.585 29.6342 373.098 30.1406Z" fill="#E95F14"/>
<path d="M344 44C345.438 44.1146 346.876 44.2421 348.312 44.375C349.513 44.4794 349.513 44.4794 350.738 44.5859C353 45 353 45 356 47C356.872 54.7987 354.657 61.1843 352.125 68.5C348.603 78.8922 345.638 88.2158 345.75 99.25C345.742 100.026 345.735 100.802 345.727 101.602C345.741 105.852 346.046 109.123 348 113C344.861 114.569 342.461 114.352 339 114C335.751 111.401 333.573 108.86 332 105C331.608 105.887 331.216 106.774 330.812 107.688C328.848 111.278 327.234 113.484 324 116C321.267 116.691 318.84 116.856 316 117C315.865 117.58 315.729 118.16 315.59 118.758C314.128 124.062 312.405 127.596 307.969 130.961C304.334 132.879 302.054 132.731 298 132C294.108 128.208 292.912 125.158 292.438 119.875C292.354 118.965 292.27 118.055 292.184 117.117C292.123 116.419 292.062 115.72 292 115C290.793 116.454 290.793 116.454 289.562 117.938C286.33 121.162 283.635 122.018 279.117 122.238C275.774 121.862 274.197 120.463 272 118C268.439 112.507 269.349 105.254 270 99C271.311 95.2499 272.902 92.4088 275 89C271.7 89.66 268.4 90.32 265 91C264.526 92.3819 264.051 93.7637 263.562 95.1875C263.296 95.9648 263.029 96.7421 262.754 97.543C260.248 105.711 260.147 114.662 262 123C260.515 123.99 260.515 123.99 259 125C259 125.66 259 126.32 259 127C254.946 126.079 253.303 125.385 250.687 122.062C246.56 114.573 247.56 107.019 249.547 98.9727C250.1 96.5648 250.289 94.457 250 92C249.34 91.01 248.68 90.02 248 89C247.875 85.8125 247.875 85.8125 248 83C251.465 82.505 251.465 82.505 255 82C255.402 80.1437 255.402 80.1437 255.812 78.25C257.094 72.4713 258.544 66.7367 260 61C266.805 60.8697 266.805 60.8697 270 63C272.571 68.1429 270.68 73.855 269 79C270.361 78.8453 270.361 78.8453 271.75 78.6875C275 79 275 79 277.203 81.5195C277.796 82.3381 278.389 83.1566 279 84C280.104 83.1686 280.104 83.1686 281.23 82.3203C282.206 81.5959 283.182 80.8714 284.188 80.125C285.15 79.4057 286.113 78.6864 287.105 77.9453C291.252 75.1586 294.612 73.7155 299.625 73.75C300.38 73.7448 301.136 73.7397 301.914 73.7344C304 74 304 74 307 76C307.471 78.7428 307.178 81.1956 307 84C305.437 85.5626 303.599 85.3411 301.438 85.625C295.477 86.7847 291.891 89.3997 288 94C285.344 98.0649 283.606 102.149 283 107C285.941 106.816 285.941 106.816 289 106C290.146 104.204 290.146 104.204 291 102C291.495 100.919 291.495 100.919 292 99.8164C293.736 95.9029 295.454 91.9939 297 88C300.217 87.7807 302.434 87.7317 305.375 89.125C307 91 307 91 307.375 93.8125C307 97 307 97 306 99.625C304.489 104.723 303.548 112.097 306 117C308.64 117 311.28 117 314 117C312.763 115.577 312.763 115.577 311.5 114.125C308.207 109.406 308.204 105.591 309 100C311.023 90.1605 313.924 80.5564 317 71C318.887 70.9381 318.887 70.9381 320.812 70.875C321.874 70.8402 321.874 70.8402 322.957 70.8047C325 71 325 71 328 73C328.713 78.8835 327.051 83.5752 325.062 89C323.123 94.3628 321.597 99.3142 321 105C325.601 102.967 328.721 100.828 332 97C332.995 94.0689 332.995 94.0689 333.375 90.75C334.559 83.4538 336.498 76.4676 338.562 69.375C340.994 60.9461 343.147 52.7555 344 44Z" fill="#EA5A0E"/>
<path d="M364 118C364.99 118.66 365.98 119.32 367 120C367.328 121.875 367.328 121.875 367.25 124C367.235 124.701 367.219 125.402 367.203 126.125C367 128 367 128 366 130C363.667 130.655 361.361 131.219 359 131.75C348.557 134.344 341.771 138.77 336 148C334.518 151.216 333.423 154.495 332.375 157.875C332.083 158.78 331.791 159.684 331.49 160.616C329.098 168.217 327.296 175.897 325.727 183.703C325 187 325 187 324 188C320.324 188.418 318.403 188.219 315.125 186.438C313 184 313 184 312.563 180.812C313.064 176.443 313.918 172.259 315 168C311.635 170.243 311.43 170.96 310.188 174.625C307.364 181.953 304.142 187.158 297.125 191C292.403 193.092 289.121 193.768 284 193C279.956 190.903 277.64 189.241 276 185C275.349 179.633 274.874 174.043 277.938 169.375C280.045 165.927 280.208 164.901 280.313 161.062C280.644 155.879 282.495 153.252 286.125 149.629C291.51 144.951 296.25 144.44 303.219 144.664C306 145 306 145 309.063 146.437C311.751 149.993 312.876 153.722 314 158C316.58 157.073 316.58 157.073 319 155C319.703 152.12 320.101 149.726 320.313 146.812C320.422 145.688 320.422 145.688 320.533 144.541C320.709 142.696 320.858 140.848 321 139C329.786 139.92 329.786 139.92 333 143C333.278 141.793 333.278 141.793 333.563 140.562C337.253 131.417 344.83 124.339 353 119.062C356.979 117.653 359.784 117.654 364 118Z" fill="#11A84B"/>
<path d="M200.438 87.75C201.89 87.7113 201.89 87.7113 203.371 87.6719C206 88 206 88 207.824 89.2734C209.847 92.2444 209.519 95.5826 209 99C207.5 102 207.5 102 206 104C204.917 103.227 204.917 103.227 203.813 102.438C201.155 100.81 201.155 100.81 198.5 101C193.488 103.005 190.956 106.681 188.625 111.375C186.805 115.722 186.845 118.476 188 123C196.492 122.697 201.204 118.956 207 113C206.721 121.803 203.82 127.366 197.438 133.438C192.17 136.814 187.234 138.107 181 137C177.931 135.283 175.596 133.192 174 130C173.929 127.959 173.916 125.917 173.938 123.875C173.947 122.779 173.956 121.684 173.965 120.555C173.976 119.712 173.988 118.869 174 118C171.01 120.563 169.663 123.467 168 127C164.892 133.604 164.892 133.604 162 136C159.887 136.724 159.887 136.724 157.473 137.203C156.598 137.378 155.723 137.554 154.822 137.734C153.912 137.905 153.001 138.075 152.063 138.25C151.156 138.436 150.249 138.621 149.314 138.812C141.597 140.312 141.597 140.312 138 139C134.604 135.24 134.504 131.392 134.633 126.547C135.112 123.222 136.391 120.881 138.059 118.004C139.136 115.71 139.336 113.895 139.5 111.375C139.949 105.573 142.662 102.041 146.938 98.25C152.496 94.1662 157.187 93.1948 164 94C167.664 95.5929 170.123 97.4445 172 101C172.188 104.75 172.188 104.75 172 108C177.344 105.435 180.027 102.937 183.387 98.1016C187.976 92.1233 192.826 87.8713 200.438 87.75Z" fill="#EA5A0D"/>
<path d="M91 67C92.32 70.3 93.64 73.6 95 77C93.9304 77.3373 92.8608 77.6747 91.7588 78.0222C87.7799 79.282 83.8085 80.5638 79.8389 81.8523C78.122 82.4062 76.4033 82.9541 74.6826 83.4958C72.2049 84.2771 69.735 85.0797 67.2656 85.8867C66.4988 86.1234 65.732 86.3601 64.942 86.6039C60.1702 88.1927 57.9683 89.7748 55 94C52.25 94.8125 52.25 94.8125 50 95C50 95.99 50 96.98 50 98C50.7219 97.6494 51.4438 97.2988 52.1875 96.9375C55.3123 95.8959 56.8816 96.109 60 97C60 98.65 60 100.3 60 102C60.66 102.33 61.32 102.66 62 103C61.67 103.99 61.34 104.98 61 106C59.0128 106.704 57.0122 107.371 55 108C54.67 108.66 54.34 109.32 54 110C55.3303 109.505 55.3303 109.505 56.6875 109C59.7092 108.088 61.8837 107.817 65 108C64.67 109.32 64.34 110.64 64 112C62.8656 112.289 61.7313 112.577 60.5625 112.875C59.3869 113.246 58.2112 113.618 57 114C56.67 114.66 56.34 115.32 56 116C59.3 115.34 62.6 114.68 66 114C66 114.99 66 115.98 66 117C63.69 117.99 61.38 118.98 59 120C61.6666 121.333 63.1668 120.671 66 120C71.4579 130.62 76.4688 141.37 81.2099 152.328C83.1502 156.81 85.1058 161.286 87.0625 165.762C87.4666 166.686 87.8707 167.611 88.2871 168.563C92.7045 178.646 97.2559 188.667 101.812 198.688C107.522 211.255 113.183 223.841 118.688 236.5C118.966 237.138 119.245 237.777 119.533 238.434C120.301 240.194 121.063 241.956 121.824 243.719C122.248 244.698 122.672 245.677 123.108 246.686C124 249 124 249 124 251C118.375 254 118.375 254 115 254C114.488 252.846 113.977 251.693 113.45 250.504C111.009 245.002 108.568 239.501 106.125 234C105.674 232.985 105.224 231.971 104.76 230.925C98.5072 216.848 92.2137 202.789 85.875 188.75C77.6995 170.64 69.6907 152.459 61.7381 134.25C61.1356 132.871 60.5299 131.493 59.921 130.117C59.2566 128.59 58.6146 127.053 57.9868 125.51C57.6468 124.693 57.3068 123.877 56.9565 123.035C56.6534 122.287 56.3503 121.54 56.0381 120.77C55.0577 118.654 55.0577 118.654 52 118C52.0619 117.257 52.1238 116.515 52.1875 115.75C51.9662 112.504 50.9876 111.485 49 109C49 108.01 49 107.02 49 106C51.31 105.34 53.62 104.68 56 104C56 103.34 56 102.68 56 102C55.1686 102.251 55.1686 102.251 54.3203 102.508C53.5959 102.711 52.8714 102.915 52.125 103.125C51.4057 103.334 50.6864 103.543 49.9453 103.758C49.3034 103.838 48.6614 103.918 48 104C44.5294 100.529 44.2374 95.5135 43.5 90.8125C44.0918 87.4839 45.2566 86.4219 47.8555 84.3625C52.6233 81.3333 58.0066 79.481 63.25 77.4375C65.0154 76.7346 65.0154 76.7346 66.8164 76.0176C70.2074 74.6691 73.6032 73.3337 77 72C78.9122 71.2428 80.8238 70.4839 82.7344 69.7227C83.5152 69.4121 84.2961 69.1015 85.1006 68.7815C89.4305 67 89.4305 67 91 67Z" fill="#F2A85C"/>
<path d="M140.125 77.9375C142.688 82.1243 142.739 85.2142 142 90C140.88 94.4064 139.925 97.3835 136 100C133 96.25 133 96.25 133 94C131.804 93.7319 130.608 93.4638 129.375 93.1875C128.702 93.0367 128.029 92.8859 127.336 92.7305C123.625 93.1586 121.405 95.3214 119 98C117.308 100.559 115.986 103.225 114.688 106C114.341 106.699 113.995 107.397 113.639 108.117C110.892 113.792 109.861 118.472 109.938 124.812C109.947 125.788 109.956 126.764 109.965 127.77C109.976 128.506 109.988 129.242 110 130C116.976 130.91 121.505 128.167 127 124C129.207 121.77 131.065 119.48 133 117C133.33 117 133.66 117 134 117C134.902 124.82 132.285 130.505 128 137C121.475 144.545 114.173 149.177 104.25 150.5C99.5682 149.78 96.818 148.139 93.7383 144.516C89.333 137.529 89.8291 127.878 91.3955 120.015C95.2594 104.722 103.497 89.4658 116.566 80.1758C123.688 76.0812 132.681 73.3223 140.125 77.9375Z" fill="#EA5A0E"/>
<path d="M220 63C221.439 63.0875 222.876 63.1957 224.313 63.3125C225.113 63.3705 225.914 63.4285 226.738 63.4883C229.532 64.1203 230.455 64.5744 232 67C232.82 73.4773 230.745 79.4294 229 85.625C228.432 87.6573 227.869 89.6911 227.313 91.7266C227.061 92.6194 226.81 93.5122 226.551 94.4321C225.993 97.0342 225.9 99.3475 226 102C229.678 99.7269 229.678 99.7269 233 97C233.342 93.8338 233.256 92.3952 231.5 89.6875C230.758 88.8522 230.758 88.8522 230 88C233.397 85.2825 235.778 83.6956 240.188 83.5C244 84 244 84 246 85.5C247.423 89.0566 247.634 92.267 247 96C244.403 101.401 241.25 103.518 236 106C235.01 106 234.02 106 233 106C234.444 113.699 235.803 120.894 241 127C243.353 128.176 244.821 128.134 247.438 128.125C248.22 128.128 249.002 128.13 249.809 128.133C252.179 128.084 252.179 128.084 255 127C254.753 133.906 252.878 138.051 248 143C244.402 145.159 241.153 145.606 237 145C229.653 139.402 227.35 130.598 225.25 122C225.03 121.13 224.809 120.26 224.582 119.363C224.046 117.244 223.522 115.122 223 113C221.658 117.471 220.602 121.816 219.875 126.438C219.707 127.488 219.54 128.539 219.367 129.621C219.246 130.406 219.125 131.191 219 132C212.808 132.476 212.808 132.476 209.563 130.562C205.246 123.484 209.05 113.174 210.813 105.688C211.074 104.541 211.335 103.394 211.604 102.213C212.867 96.6983 214.195 91.2045 215.594 85.7227C216.845 80.7593 217.849 75.7981 218.688 70.75C218.817 69.9933 218.947 69.2366 219.08 68.457C219.391 66.6387 219.696 64.8195 220 63Z" fill="#EA5A0E"/>
<path d="M382 45C422.146 44.8101 422.146 44.8101 434.438 45.4375C435.227 45.4767 436.016 45.516 436.829 45.5564C441.86 45.8605 441.86 45.8605 443 47C443.21 48.5205 443.359 50.0497 443.481 51.5798C443.561 52.5543 443.641 53.5288 443.723 54.5328C443.805 55.5932 443.888 56.6536 443.973 57.7461C444.06 58.8275 444.147 59.909 444.237 61.0232C444.517 64.4943 444.79 67.9659 445.062 71.4375C445.25 73.7767 445.438 76.1159 445.627 78.4551C445.97 82.7335 446.312 87.0119 446.649 91.2908C446.717 92.1538 446.785 93.0168 446.855 93.906C446.949 95.2682 447 96.6345 447 98C441.521 96.4545 436.886 93.8446 432 91C432.61 83.7664 434.104 77.0156 435.938 70C436.469 67.9378 436.999 65.8753 437.527 63.8125C437.779 62.8341 438.03 61.8557 438.289 60.8477C439.271 56.9141 440.145 52.9633 441 49C440.659 49.4772 440.317 49.9544 439.965 50.446C432.811 60.4322 425.572 70.3258 418 80C414.094 79.4068 411.782 77.5138 408.75 75.0625C407.858 74.3522 406.966 73.642 406.047 72.9102C405.371 72.2798 404.696 71.6495 404 71C404 70.34 404 69.68 404 69C405.598 67.8142 405.598 67.8142 407.848 66.4961C408.674 66.0066 409.501 65.517 410.353 65.0127C411.247 64.4929 412.141 63.9731 413.062 63.4375C414.892 62.3581 416.721 61.2787 418.551 60.1992C419.925 59.3936 419.925 59.3936 421.327 58.5718C425.15 56.3238 428.95 54.0381 432.75 51.75C433.974 51.0154 435.198 50.281 436.422 49.5469C437.273 49.0364 438.123 48.5259 439 48C429.623 49.4152 420.53 51.5006 411.355 53.877C396.889 57.489 396.889 57.489 390 57C387.078 54.9805 387.078 54.9805 385.25 52.1875C384.616 51.2736 383.982 50.3596 383.328 49.418C382 47 382 47 382 45Z" fill="#15A649"/>
<path d="M98 63C100.365 64.8671 101.66 66.3206 103 69C103.187 72.5 103.187 72.5 103 76C100.327 78.6728 97.7829 79.2123 94.1875 80.375C93.5168 80.5934 92.8461 80.8118 92.155 81.0369C87.8867 82.4194 83.6024 83.7485 79.3125 85.0625C78.2709 85.3822 77.2294 85.7019 76.1562 86.0312C73.9701 86.7023 71.7825 87.3686 69.5937 88.0312C67.9695 88.5417 67.9695 88.5417 66.3125 89.0625C65.3393 89.3629 64.366 89.6632 63.3633 89.9727C60.6871 90.8822 60.6871 90.8822 59 94C60.32 94.66 61.64 95.32 63 96C62.67 97.65 62.34 99.3 62 101C63.32 101.33 64.64 101.66 66 102C65.67 103.32 65.34 104.64 65 106C66.485 106.495 66.485 106.495 68 107C67.9587 107.784 67.9175 108.567 67.875 109.375C67.7127 112.161 67.7127 112.161 70 114C69.9821 115.054 69.9642 116.108 69.9458 117.194C70.0076 121.537 71.0094 123.992 72.8672 127.898C73.1738 128.555 73.4804 129.211 73.7963 129.887C74.4624 131.31 75.1345 132.73 75.8117 134.148C77.6512 138.001 79.4451 141.875 81.2461 145.746C81.6276 146.563 82.0091 147.38 82.4022 148.222C86.6408 157.321 90.6992 166.498 94.7317 175.69C95.9251 178.409 97.1234 181.126 98.3218 183.843C99.0574 185.519 99.7926 187.195 100.527 188.871C100.865 189.636 101.203 190.401 101.551 191.19C102.966 194.434 104.21 197.551 105 201C104.01 201.33 103.02 201.66 102 202C101.323 200.451 101.323 200.451 100.633 198.871C89.2565 172.838 77.7096 146.885 66 121C62.535 121.495 62.535 121.495 59 122C59 121.01 59 120.02 59 119C61.31 118.01 63.62 117.02 66 116C65.34 115.67 64.68 115.34 64 115C63.01 115.495 63.01 115.495 62 116C60.0004 116.04 57.9995 116.043 56 116C56.33 115.01 56.66 114.02 57 113C60.465 112.505 60.465 112.505 64 112C64.33 110.68 64.66 109.36 65 108C61.37 108.66 57.74 109.32 54 110C54.33 109.01 54.66 108.02 55 107C56.9872 106.296 58.9878 105.629 61 105C61.33 104.34 61.66 103.68 62 103C60.515 102.505 60.515 102.505 59 102C59 100.35 59 98.7 59 97C54.545 97.495 54.545 97.495 50 98C50 97.01 50 96.02 50 95C50.8869 94.6081 51.7737 94.2163 52.6875 93.8125C56.0572 92.2006 56.0572 92.2006 58.2253 89.5676C61.4589 86.5753 64.5871 85.377 68.707 84.1055C69.4324 83.8684 70.1578 83.6313 70.9052 83.387C73.2033 82.6395 75.5075 81.9133 77.8125 81.1875C79.38 80.6817 80.9471 80.1746 82.5137 79.666C86.3375 78.428 90.1669 77.209 94 76C93.505 75.0719 93.01 74.1438 92.5 73.1875C91 70 91 70 91 67C90.4637 67.2913 89.9275 67.5827 89.375 67.8828C84.1896 70.5949 78.9287 72.8615 73.4375 74.875C67.4855 77.0618 61.5671 79.3119 55.6875 81.6875C54.9643 81.9729 54.241 82.2582 53.4958 82.5522C48.6516 84.4571 48.6516 84.4571 45 88C44.2301 93.3892 46.1425 98.0246 48 103C50.64 102.67 53.28 102.34 56 102C56 102.66 56 103.32 56 104C53.3526 105.461 52.1055 106 49 106C49.6806 107.052 50.3612 108.104 51.0625 109.188C52.6357 111.903 53.0251 112.705 52.75 115.938C52.5025 116.618 52.255 117.299 52 118C52.6131 118.079 53.2262 118.158 53.8579 118.239C56 119 56 119 57.2336 120.802C57.577 121.587 57.9204 122.372 58.2742 123.181C58.6711 124.069 59.0679 124.957 59.4769 125.872C59.8905 126.838 60.3042 127.805 60.7305 128.801C61.1664 129.789 61.6022 130.777 62.0513 131.794C63.444 134.961 64.8155 138.137 66.1875 141.312C67.1231 143.443 68.0599 145.572 68.998 147.701C70.7107 151.608 72.4233 155.515 74.114 159.431C74.455 160.218 74.796 161.006 75.1474 161.817C75.9474 163.865 76.5222 165.856 77 168C76.01 168.33 75.02 168.66 74 169C73.7789 168.495 73.5579 167.99 73.3301 167.47C71.0278 162.214 68.724 156.958 66.4194 151.703C65.5597 149.742 64.7003 147.78 63.8413 145.819C62.6061 142.999 61.3696 140.179 60.1328 137.359C59.7494 136.483 59.366 135.607 58.971 134.704C58.6108 133.884 58.2505 133.063 57.8794 132.218C57.5641 131.498 57.2487 130.779 56.9239 130.038C56.2917 128.643 55.608 127.272 54.8825 125.924C54 124 54 124 54 121C52.35 120.34 50.7 119.68 49 119C49.33 117.35 49.66 115.7 50 114C49.34 114 48.68 114 48 114C47.7228 113.29 47.4457 112.579 47.1602 111.848C46.7979 110.929 46.4357 110.009 46.0625 109.062C45.7028 108.146 45.3432 107.229 44.9727 106.285C44.2004 104.076 44.2004 104.076 43 103C41.6101 98.1809 40.2243 92.9865 41 88C44.7304 82.5205 48.4773 80.4212 54.5547 78.0195C55.3745 77.68 56.1942 77.3405 57.0388 76.9906C59.6447 75.9154 62.2593 74.8636 64.875 73.8125C66.6243 73.096 68.373 72.3779 70.1211 71.6582C74.0576 70.0399 78.0007 68.4384 81.9479 66.8463C83.922 66.0322 85.8704 65.1724 87.8208 64.3035C91.5355 62.7805 94.0229 62.4747 98 63Z" fill="#EB6319"/>
<path d="M443 47C445.812 50.3608 448.086 53.7047 450.18 57.5508C451.069 59.1709 451.069 59.1709 451.976 60.8237C452.602 61.975 453.229 63.1263 453.875 64.3125C455.207 66.7404 456.544 69.1656 457.883 71.5898C458.222 72.2045 458.561 72.8192 458.911 73.4526C464.917 84.3019 471.063 95.1304 477.653 105.635C479.224 108.394 479.493 109.876 479 113C477.427 115.019 476.443 115.884 473.949 116.539C467.939 116.767 467.939 116.767 465.078 114.43C463.591 112.68 462.252 110.924 461 109C460.484 109.516 459.969 110.031 459.438 110.562C457 112 457 112 453.5 112C450 111 450 111 447.562 109.062C445.953 105.907 445.842 104.807 445.943 101.397C446.021 96.4202 445.753 91.5472 445.344 86.5898C445.277 85.7375 445.211 84.8851 445.142 84.007C444.932 81.3168 444.716 78.6271 444.5 75.9375C444.215 72.3844 443.934 68.831 443.656 65.2773C443.591 64.4802 443.525 63.6831 443.457 62.8618C443.043 57.5585 442.944 52.3198 443 47Z" fill="#E05E11"/>
<path d="M365 136C370.579 139.158 370.579 139.158 372 142C373.02 149.44 371.926 154.68 367.707 160.895C365.387 163.756 363.371 165.486 360 167C356.187 167.312 356.187 167.312 353 167C352 166 352 166 351.937 162.437C351.958 161.303 351.979 160.169 352 159C354.308 157.846 356.472 157.466 359 157C359.99 153.535 359.99 153.535 361 150C356.366 151.192 354.595 153.467 352.016 157.246C349.548 161.508 349.846 165.226 350 170C351.128 171.339 351.128 171.339 354.062 171.312C360.288 170.818 365.226 167.978 370 164C369.636 169.942 368.06 173.612 364 178C357.84 182.849 352.085 184.476 344.344 184.324C340.955 183.855 339.239 182.527 337 180C334.086 171.257 336.272 162.727 340.102 154.687C344.804 145.706 353.291 133.658 365 136Z" fill="#12A94C"/>
<path d="M423.437 109.937C425.39 112.515 425.123 113.472 424.812 116.625C424.197 120.803 424.197 120.803 423 122C421.358 122.274 419.711 122.519 418.062 122.75C409.282 124.322 402.138 127.576 396.52 134.668C388.862 146.419 385.451 162.388 383.359 176.129C383 178 383 178 382 179C378.508 179.264 375.828 179.34 372.562 178C370.157 174.92 370.637 171.725 371 168C371.781 164.261 372.823 160.609 373.875 156.938C376.344 147.964 378.151 139.27 379 130C383.557 130.438 386.577 130.85 390 134C390.412 133.227 390.825 132.453 391.25 131.656C397.248 120.839 408.835 104.321 423.437 109.937Z" fill="#13A94C"/>
<path d="M269 128C276.687 127.875 276.687 127.875 279.5 129C281.868 132.157 281.47 135.245 281 139C279.742 143.989 278.163 148.863 276.562 153.75C275.929 155.723 275.298 157.697 274.667 159.671C274.097 161.453 273.518 163.232 272.94 165.011C271.678 169.026 270.873 172.373 270.867 176.59C270.866 177.457 270.865 178.324 270.863 179.217C270.867 180.115 270.871 181.012 270.875 181.938C270.871 182.831 270.867 183.725 270.863 184.646C270.87 188.887 270.913 192.868 272 197C268.875 197.812 268.875 197.812 265 198C260.81 195.312 258.14 192.903 257 188C255.943 176.588 259.951 164.881 263.082 154.015C265.515 145.442 267.266 136.736 269 128Z" fill="#13A94C"/>
<path d="M373.098 30.1406C380.852 31.1029 388.453 32.9529 396.062 34.6875C397.66 35.0472 399.257 35.4066 400.854 35.7656C413.933 38.7158 426.98 41.7985 440 45C440 45.33 440 45.66 440 46C439.284 45.9956 438.569 45.9911 437.832 45.9865C431.079 45.9464 424.325 45.916 417.572 45.8964C414.101 45.886 410.629 45.8718 407.157 45.8491C403.164 45.8232 399.17 45.8135 395.176 45.8047C393.933 45.7944 392.69 45.784 391.409 45.7734C390.249 45.7733 389.088 45.7731 387.892 45.773C386.873 45.7685 385.853 45.7641 384.803 45.7595C381.839 46.0138 379.726 46.8569 377 48C372.312 48 370.555 47.5074 367.062 44.3125C364.793 40.6682 364.198 39.1868 365 35C366.984 30.7609 368.585 29.6342 373.098 30.1406Z" fill="#E36014"/>
<path d="M98 63C100.365 64.8671 101.66 66.3206 103 69C103.04 71.333 103.043 73.6671 103 76C101.02 76.99 101.02 76.99 99 78C99 77.34 99 76.68 99 76C97.3546 74.3124 95.6871 72.646 94 71C93.505 70.01 93.505 70.01 93 69C92.34 69.33 91.68 69.66 91 70C91 69.01 91 68.02 91 67C90.4637 67.2913 89.9275 67.5827 89.375 67.8828C84.1896 70.5949 78.9287 72.8615 73.4375 74.875C67.4855 77.0618 61.5671 79.3119 55.6875 81.6875C54.9643 81.9729 54.241 82.2582 53.4958 82.5522C48.6516 84.4571 48.6516 84.4571 45 88C44.2301 93.3892 46.1425 98.0246 48 103C50.64 102.67 53.28 102.34 56 102C56 102.66 56 103.32 56 104C53.3526 105.461 52.1055 106 49 106C49.6806 107.052 50.3612 108.104 51.0625 109.188C52.6357 111.903 53.0251 112.705 52.75 115.938C52.5025 116.618 52.255 117.299 52 118C52.6131 118.079 53.2262 118.158 53.8579 118.239C56 119 56 119 57.2336 120.802C57.577 121.587 57.9204 122.372 58.2742 123.181C58.6711 124.069 59.0679 124.957 59.4769 125.872C59.8905 126.838 60.3042 127.805 60.7305 128.801C61.1664 129.789 61.6022 130.777 62.0513 131.794C63.444 134.961 64.8155 138.137 66.1875 141.312C67.1231 143.443 68.0599 145.572 68.998 147.701C70.7107 151.608 72.4233 155.515 74.114 159.431C74.455 160.218 74.796 161.006 75.1474 161.817C75.9474 163.865 76.5222 165.856 77 168C76.01 168.33 75.02 168.66 74 169C73.7789 168.495 73.5579 167.99 73.3301 167.47C71.0278 162.214 68.724 156.958 66.4194 151.703C65.5597 149.742 64.7003 147.78 63.8413 145.819C62.6061 142.999 61.3696 140.179 60.1328 137.359C59.7494 136.483 59.366 135.607 58.971 134.704C58.6108 133.884 58.2505 133.063 57.8794 132.218C57.5641 131.498 57.2487 130.779 56.9239 130.038C56.2917 128.643 55.608 127.272 54.8825 125.924C54 124 54 124 54 121C52.35 120.34 50.7 119.68 49 119C49.33 117.35 49.66 115.7 50 114C49.34 114 48.68 114 48 114C47.7228 113.29 47.4457 112.579 47.1602 111.848C46.7979 110.929 46.4357 110.009 46.0625 109.062C45.7028 108.146 45.3432 107.229 44.9727 106.285C44.2004 104.076 44.2004 104.076 43 103C41.6101 98.1809 40.2243 92.9865 41 88C44.7304 82.5205 48.4773 80.4212 54.5547 78.0195C55.3745 77.68 56.1942 77.3405 57.0388 76.9906C59.6447 75.9154 62.2593 74.8636 64.875 73.8125C66.6243 73.096 68.373 72.3779 70.1211 71.6582C74.0576 70.0399 78.0007 68.4384 81.9479 66.8463C83.922 66.0322 85.8704 65.1724 87.8208 64.3035C91.5355 62.7805 94.0229 62.4747 98 63Z" fill="#EB641B"/>
<path d="M380 46C383.149 47.3691 385.048 48.8752 387.25 51.5C387.771 52.1084 388.292 52.7169 388.828 53.3438C390 55 390 55 390 57C402.952 54.6626 415.772 51.9901 428.554 48.8433C430.14 48.4626 430.14 48.4626 431.758 48.0742C433.168 47.7275 433.168 47.7275 434.606 47.3738C437 47 437 47 440 48C439.254 48.4585 438.509 48.917 437.74 49.3894C434.937 51.1131 432.134 52.8371 429.331 54.5613C428.125 55.3032 426.918 56.0451 425.712 56.7869C424.54 57.5074 423.368 58.2283 422.197 58.9495C420.492 59.9972 418.785 61.0404 417.078 62.0835C415.213 63.245 413.363 64.4336 411.547 65.6704C406.682 68.9753 406.682 68.9753 403.301 69.0977C400.308 67.6699 398.46 65.8454 396.188 63.4375C395.397 62.6112 394.607 61.7849 393.793 60.9336C393.201 60.2955 392.61 59.6574 392 59C391.01 59.33 390.02 59.66 389 60C382.094 60.7797 382.094 60.7797 379.367 58.8359C377.261 56.4895 376.082 54.3931 375.438 51.3125C376 49 376 49 378 47.1875C378.66 46.7956 379.32 46.4038 380 46Z" fill="#E55C0F"/>
<path d="M441 48C442.347 52.0403 441.188 55.0469 440.129 59.0273C439.928 59.8127 439.727 60.598 439.519 61.4071C438.875 63.9193 438.219 66.4285 437.562 68.9375C436.91 71.4432 436.261 73.9494 435.616 76.4572C435.215 78.0177 434.809 79.5771 434.398 81.135C433.511 84.5711 433 87.4244 433 91C437.29 93.31 441.58 95.62 446 98C445 102 445 102 443 104C439.941 104.561 437.065 104.512 434 104C431.438 102.062 431.438 102.062 430 99C430.134 97.5591 430.304 96.1213 430.5 94.6875C430.788 92.3268 430.788 92.3268 430 90C426.311 86.7232 422.335 84.3676 418 82C418.623 78.4504 420.032 76.3002 422.188 73.4375C422.893 72.4913 423.598 71.5452 424.324 70.5703C424.735 70.0241 425.145 69.4778 425.568 68.915C427.92 65.7703 430.241 62.6032 432.568 59.4397C435.374 55.6236 438.187 51.8118 441 48Z" fill="#E65A0E"/>
<path d="M444 49C446.757 51.4575 448.324 54.1226 450.082 57.3555C450.678 58.442 451.274 59.5285 451.888 60.6479C452.201 61.2251 452.515 61.8023 452.839 62.3969C454.496 65.4444 456.172 68.4821 457.848 71.5195C458.19 72.1404 458.532 72.7613 458.885 73.401C462.413 79.7806 466.066 86.0844 469.75 92.375C470.334 93.3717 470.917 94.3684 471.519 95.3953C474.548 100.565 474.548 100.565 477.677 105.674C479 108 479 108 479 110C477.457 109.713 475.916 109.42 474.375 109.125C473.087 108.881 473.087 108.881 471.773 108.633C470.858 108.424 469.943 108.215 469 108C468.024 107.836 467.049 107.672 466.044 107.502C462.111 105.561 461.681 103.9 460.314 99.8814C460.054 99.0388 459.795 98.1962 459.527 97.3281C459.237 96.4541 458.947 95.5801 458.647 94.6796C457.721 91.8766 456.829 89.0642 455.938 86.25C455.335 84.4016 454.73 82.5539 454.123 80.707C453.235 78.0005 452.349 75.2933 451.474 72.5822C449.406 66.1699 447.189 59.8288 444.85 53.5107C444 51 444 51 444 49Z" fill="#16A84D"/>
<path d="M446 98C446.807 98.3321 446.807 98.3321 447.63 98.6709C457.97 102.912 468.217 107.009 479 110C478.427 112.867 478.139 113.861 476 116C472.898 116.701 470.099 116.711 467 116C464.51 113.975 462.744 111.681 461 109C460.484 109.516 459.969 110.031 459.437 110.562C457 112 457 112 453.5 112C450 111 450 111 447.562 108.938C445.475 105.013 445.887 102.414 446 98Z" fill="#F2AB61"/>
<path d="M98 63C100.365 64.8671 101.66 66.3206 103 69C103.04 71.333 103.043 73.6671 103 76C101.02 76.99 101.02 76.99 99 78C99 77.34 99 76.68 99 76C97.3546 74.3124 95.6871 72.646 94 71C93.67 70.34 93.34 69.68 93 69C92.01 69.495 92.01 69.495 91 70C91 69.01 91 68.02 91 67C90.1086 67.4718 90.1086 67.4718 89.1992 67.9531C83.0462 71.1301 76.7355 74.2741 70 76C69.01 75.67 68.02 75.34 67 75C71.3477 71.0605 76.0312 68.9835 81.375 66.75C82.2 66.3865 83.025 66.023 83.875 65.6484C88.7334 63.5971 92.6283 62.3802 98 63Z" fill="#EB631A"/>
<path d="M369 30C373.006 31.3354 373.941 33.2967 376.312 36.75C377.051 37.7967 377.79 38.8434 378.551 39.9219C380 43 380 43 379.23 45.8906C378.824 46.5867 378.418 47.2828 378 48C371.055 47.7646 371.055 47.7646 368.355 45.8086C366.098 43.3167 365.042 41.231 364.438 37.9375C365.122 34.3628 366.532 32.6227 369 30Z" fill="#F3AB60"/>
<path d="M417 81C418.771 82.1246 420.542 83.2497 422.312 84.375C423.299 85.0015 424.285 85.628 425.301 86.2734C427.213 87.4965 429.111 88.7409 431 90C430.688 91.875 430.688 91.875 430 94C426.263 96.4916 424.427 96.4579 420 96C417.062 94.25 417.062 94.25 415 92C415 90.68 415 89.36 415 88C414.34 87.67 413.68 87.34 413 87C414.32 85.02 415.64 83.04 417 81Z" fill="#F2AA5F"/>
<path d="M244 168C244.328 172.819 243.53 175.584 241.125 179.75C240.591 180.694 240.058 181.637 239.508 182.609C238 185 238 185 236 187C233.875 186.625 233.875 186.625 232 186C231.063 182.902 230.641 180.23 231 177C234.168 171.646 237.391 167.27 244 168Z" fill="#F4D6A6"/>
<path d="M391 58C392.717 59.4398 394.419 60.8911 396.102 62.3711C397.695 63.738 399.371 65.0072 401.062 66.25C403 69 403 69 402.859 71.5352C402.359 74.075 401.755 76.5248 401 79C400.67 79 400.34 79 400 79C400 77.35 400 75.7 400 74C398.67 74.1238 398.67 74.1238 397.312 74.25C393.275 73.9453 391.861 72.7796 389 70C387.758 67.516 388.018 66.1779 388.312 63.4375C388.391 62.6318 388.47 61.8262 388.551 60.9961C388.699 60.3374 388.847 59.6787 389 59C389.66 58.67 390.32 58.34 391 58Z" fill="#F3AE67"/>
<path d="M321 53C327.326 52.6419 327.326 52.6419 330 54.0625C331.635 57.2309 330.84 59.6385 330 63C328.812 64.9375 328.812 64.9375 327 66C323.938 66.3125 323.938 66.3125 321 66C319 64 319 64 318.75 60.625C318.975 57.3648 319.276 55.6937 321 53Z" fill="#EB5F14"/>
<path d="M120 235C122.291 237.291 123.306 239.387 124.688 242.312C125.145 243.257 125.603 244.202 126.074 245.176C127.119 248.362 127.196 249.88 126 253C124.328 254.398 124.328 254.398 122.25 255.375C121.575 255.713 120.899 256.05 120.203 256.398C117.331 257.183 115.785 257.072 113 256C111.383 253.672 111.383 253.672 110.125 250.75C109.694 249.796 109.264 248.842 108.82 247.859C107.931 244.758 108.096 243.058 109 240C110.682 242.523 111.901 244.811 113.125 247.562C113.478 248.348 113.831 249.133 114.195 249.941C115 252 115 252 115 254C117.97 253.01 120.94 252.02 124 251C123.441 249.896 123.441 249.896 122.871 248.77C122.398 247.794 121.925 246.818 121.438 245.812C120.724 244.368 120.724 244.368 119.996 242.895C118.905 239.723 119.034 238.163 120 235Z" fill="#EB6218"/>
<path d="M463 106C464.73 106.285 466.459 106.578 468.187 106.875C469.15 107.037 470.113 107.2 471.105 107.367C473.91 107.98 476.372 108.857 479 110C478.427 112.867 478.139 113.861 476 116C471.735 116.708 468.122 116.711 464.437 114.375C462.637 111.401 462.689 109.418 463 106Z" fill="#E75B0F"/>
<path d="M228 85C228.33 85.66 228.66 86.32 229 87C229.66 87.33 230.32 87.66 231 88C232.967 90.1185 233.91 91.6084 234.562 94.4375C233.694 98.3941 231.214 99.7311 228 102C227.01 102.33 226.02 102.66 225 103C225.483 96.7946 226.333 91.0005 228 85Z" fill="#FDCD9C"/>
<path d="M296.562 156.187C299 157 299 157 301 160C301.125 162.687 301.125 162.687 301 165C299.542 165.054 298.084 165.093 296.625 165.125C295.813 165.148 295.001 165.171 294.164 165.195C292 165 292 165 290 163C290.188 160.5 290.188 160.5 291 158C294 156 294 156 296.562 156.187Z" fill="#E8D4A1"/>
<path d="M152 106C155.625 106.375 155.625 106.375 159 107C159.381 109.326 159.713 111.661 160 114C159 115 159 115 156.125 115.188C153 115 153 115 150 113C149.688 110.5 149.688 110.5 150 108C150.66 107.34 151.32 106.68 152 106Z" fill="#FDD1A1"/>
<path d="M288 172C291.3 172 294.6 172 298 172C295.934 179.153 295.934 179.153 293 181C290.312 180.688 290.312 180.688 288 180C288 177.36 288 174.72 288 172Z" fill="#EBD4A3"/>
<path d="M148 121C149.525 121.089 151.047 121.245 152.563 121.438C153.802 121.59 153.802 121.59 155.066 121.746C155.704 121.83 156.343 121.914 157 122C155.839 126.355 154.923 128.646 151 131C149.68 130.34 148.36 129.68 147 129C146.958 126.667 146.959 124.333 147 122C147.33 121.67 147.66 121.34 148 121Z" fill="#FDD0A0"/>
<path d="M357 150C358.32 150 359.64 150 361 150C361.362 155.429 361.362 155.429 359.812 157.875C357.44 159.348 355.741 159.222 353 159C352.67 160.98 352.34 162.96 352 165C350.875 163.312 350.875 163.312 350 161C351.084 156.425 353.78 153.297 357 150Z" fill="#ECD5A3"/>
<path d="M120 235C122.291 237.291 123.306 239.387 124.687 242.312C125.145 243.257 125.603 244.202 126.074 245.176C127.096 248.292 126.932 249.9 126 253C125.01 253.33 124.02 253.66 123 254C122.67 253.01 122.34 252.02 122 251C122.66 251 123.32 251 124 251C123.441 249.896 123.441 249.896 122.871 248.77C122.398 247.794 121.925 246.818 121.437 245.812C120.724 244.368 120.724 244.368 119.996 242.895C118.905 239.723 119.034 238.163 120 235Z" fill="#EB661E"/>
<path d="M92 68C94.0246 69.9325 95.4211 71.6316 97 74C97.99 74.66 98.98 75.32 100 76C97.4635 79.1001 94.8482 80.0576 91 81C88.625 80.625 88.625 80.625 87 80C88 78 88 78 91.0625 76.875C92.5166 76.4419 92.5166 76.4419 94 76C93.34 75.01 92.68 74.02 92 73C91.875 70.3125 91.875 70.3125 92 68Z" fill="#EA5E13"/>
<path d="M94 65C95.875 65.3125 95.875 65.3125 98 66C100.29 69.4352 100.178 70.9853 100 75C98.125 74.6875 98.125 74.6875 96 74C93.7099 70.5648 93.8216 69.0147 94 65Z" fill="#FDCF9F"/>
<path d="M49 82C47.3479 85.5797 45.2688 88.7798 43 92C42.67 92 42.34 92 42 92C41.6672 88.3392 41.5383 86.605 43.8125 83.625C46 82 46 82 49 82Z" fill="#EA5F13"/>
<path d="M123 246C123.99 246 124.98 246 126 246C126.33 247.98 126.66 249.96 127 252C125.02 252.99 125.02 252.99 123 254C122.67 253.01 122.34 252.02 122 251C122.66 251 123.32 251 124 251C123.67 249.35 123.34 247.7 123 246Z" fill="#EC6F2C"/>
<path d="M55 78C55.66 78.33 56.32 78.66 57 79C54.4721 81.7987 52.7959 83.4577 49 84C48.67 83.01 48.34 82.02 48 81C50.3037 79.9335 52.6402 78.9358 55 78Z" fill="#EC6A25"/>
<path d="M82 67C84 68 84 68 85 70C82.3526 71.4606 81.1055 72 78 72C77.67 71.01 77.34 70.02 77 69C79.375 67.9375 79.375 67.9375 82 67Z" fill="#EC6B23"/>
</svg>
